<?xml version="1.0" encoding="UTF-8"?>
<!-- Created with Grafika (https://www.grafika.cc/) -->
<svg xmlns="http://www.w3.org/2000/svg" xmlns:svg="http://www.w3.org/2000/svg" xmlns:xlink="http://www.w3.org/1999/xlink" width="2048" height="2048" viewBox="0 0 2048 2048" preserveAspectRatio="xMidYMid meet">
	<g transform="matrix(1, 0, 0, 1, 1024, 1024)" style="isolation: isolate;">
		<path d="M476,-317.14 Q896.06,-387.68 980.73,-283.24 C1016.7,-247.61 980.8,-177.33 897.73,-108.6 C729.04,-100.37 578.12,-53.49 500,121.16 Q-750,600 -960.16,359.06 C-1000.45,311.6 -986.89,250.53 -677.09,70.33 C-367.29,-109.88 285.92,-285.22 476,-317.14" fill-rule="evenodd" style="fill:none;stroke:#000000;stroke-linecap:round;stroke-linejoin:round;stroke-width:31.46;" />
		<path d="M476,-317.14 C200,-748.94 -750,-400 -677.09,70.33" fill-rule="evenodd" style="fill:none;stroke:#000000;stroke-linecap:round;stroke-linejoin:round;stroke-width:31.46;" />
		<path d="M-689.78,420.31 C-732.81,420.93 -772.82,420.76 -778.69,419.91 C-784.56,419.07 -804.56,415.08 -823.14,411.03 C-843.25,406.66 -869.92,397.45 -889.01,388.29 L-921.09,372.89 L-939.69,353.22 L-958.29,333.56 L-958.29,322.53 C-958.29,316.47 -954.86,304.77 -950.68,296.54 C-946.49,288.3 -932.6,271.43 -919.8,259.03 C-907,246.64 -880.6,224.63 -861.14,210.11 C-841.67,195.59 -802.35,168.74 -773.76,150.44 C-745.18,132.14 -698.61,103.85 -670.28,87.57 C-641.96,71.3 -594.75,46.42 -565.37,32.3 C-535.99,18.17 -489.14,-3.09 -461.25,-14.95 C-433.35,-26.81 -370.14,-51.61 -320.77,-70.05 C-271.4,-88.5 -196.46,-114.88 -154.25,-128.66 C-112.03,-142.45 -37.61,-165.87 11.13,-180.72 C59.87,-195.56 134.95,-217.16 177.98,-228.7 C221.02,-240.24 281.83,-256.08 313.13,-263.9 C344.42,-271.72 393.23,-282.91 421.6,-288.76 C449.96,-294.62 501.17,-303.46 535.4,-308.42 C569.63,-313.37 623.94,-319.88 656.1,-322.89 C688.25,-325.9 733.86,-328.35 757.45,-328.33 C781.05,-328.31 814.76,-326.68 832.36,-324.69 C849.96,-322.71 873.97,-318.69 885.71,-315.77 C897.44,-312.85 916.87,-305.67 928.89,-299.81 C940.9,-293.96 956.51,-282.78 963.56,-274.97 L976.39,-260.77 L976.39,-247.96 C976.39,-240.91 972.27,-226.91 967.22,-216.85 C962.18,-206.79 951.54,-190.09 943.57,-179.75 C935.61,-169.41 920.62,-153.2 910.26,-143.73 L891.42,-126.52 L863.67,-124.07 C848.41,-122.73 819.91,-119.16 800.35,-116.15 C780.79,-113.13 751.22,-106.73 734.63,-101.93 C718.05,-97.13 691.83,-87.64 676.38,-80.84 C660.92,-74.04 637.68,-61.62 624.73,-53.23 C611.79,-44.83 591.27,-29.29 579.15,-18.68 C567.03,-8.07 548.35,11.6 537.66,25.04 C526.96,38.48 510.74,62.78 501.61,79.04 L485.01,108.61 L470.2,113.89 C462.05,116.79 417.77,133.09 371.81,150.11 C325.84,167.14 245.02,196.14 192.21,214.56 C139.4,232.99 57.78,260.11 10.83,274.85 C-36.11,289.58 -102.48,309.67 -136.66,319.48 C-170.83,329.3 -230.05,345.24 -268.24,354.9 C-306.44,364.56 -368.9,378.77 -407.05,386.49 C-445.19,394.21 -506.8,404.72 -543.97,409.85 L-611.54,419.17 L-689.78,420.31 Z" style="fill:#878481F7;" />
		<path d="M-610.51,15.21 L-664.14,42.07 L-662.11,3.56 C-661,-17.63 -656.71,-47.76 -652.58,-63.41 C-648.46,-79.06 -636.36,-109.46 -625.69,-130.98 C-615.03,-152.5 -597.97,-181.14 -587.79,-194.64 C-577.6,-208.14 -555.66,-233.49 -539.02,-250.97 C-522.38,-268.45 -493.38,-295.14 -474.56,-310.28 C-455.74,-325.42 -425.25,-347.15 -406.8,-358.58 C-388.35,-370 -352.45,-389.42 -327.03,-401.72 C-301.6,-414.02 -260.99,-431.45 -236.79,-440.45 C-212.6,-449.45 -171.27,-462.33 -144.96,-469.08 C-118.65,-475.82 -82.44,-483.81 -64.49,-486.83 C-46.53,-489.85 -2.9,-493.27 32.48,-494.43 C74.98,-495.82 108.77,-495.03 132.06,-492.11 C151.45,-489.67 181.57,-484.57 199,-480.77 C216.43,-476.97 246.04,-468.16 264.79,-461.2 C283.55,-454.23 307.7,-443.61 318.46,-437.61 C329.22,-431.6 346.97,-420.67 357.92,-413.33 C368.86,-405.98 386.81,-391.76 397.79,-381.72 C408.78,-371.68 424.2,-355.78 432.06,-346.38 L446.36,-329.31 L415.31,-323.27 C398.23,-319.94 357.85,-310.88 325.57,-303.13 C293.3,-295.37 230.88,-279.32 186.87,-267.45 C142.86,-255.59 59.64,-231.71 1.94,-214.4 C-55.76,-197.08 -132.58,-173.05 -168.77,-160.99 C-204.95,-148.94 -263.37,-128.68 -298.57,-115.98 C-333.78,-103.28 -389.8,-82.05 -423.05,-68.79 C-456.3,-55.54 -500.02,-37.26 -520.2,-28.17 C-540.38,-19.08 -581.02,0.44 -610.51,15.21 Z" style="fill:#585552F7;" />
		<ellipse transform="matrix(0.9522180557250977, -0.3054157495498657, 0.3054157495498657, 0.9522180557250977, -43.76110076904297, 60.58477020263672)" cx="0" cy="0" rx="626.35" ry="113.56" style="fill:#585552F7;mix-blend-mode:luminosity" />
	</g>
</svg>